<svg width="14" height="14" viewBox="0 0 14 14" fill="none" xmlns="http://www.w3.org/2000/svg">
<path d="M4.21299 0.614218C4.74696 0.327936 5.32707 0.908936 5.03955 1.44213C3.84782 3.65364 4.23044 6.41409 6.03378 8.21952C7.83712 10.0249 10.5976 10.413 12.8122 9.22572C13.3462 8.93944 13.9263 9.52044 13.6388 10.0536C13.3186 10.6476 12.9112 11.1948 12.4245 11.6802C9.70179 14.3968 5.29162 14.3929 2.57395 11.6712C-0.143724 8.94957 -0.139223 4.54173 2.58351 1.82515C3.07022 1.3392 3.61826 0.933121 4.21299 0.614218ZM3.43933 10.8084C5.61178 12.9839 9.09637 13.0537 11.3527 11.0143C9.1532 11.4153 6.82714 10.7432 5.16896 9.08286C3.51079 7.42254 2.8429 5.09517 3.24802 2.89772C1.20386 5.14916 1.26688 8.63291 3.43933 10.8084Z" fill="#1F2329"/>
</svg>
