<svg width="16" height="16" viewBox="0 0 16 16" fill="none" xmlns="http://www.w3.org/2000/svg">
<path d="M2.44479 8C2.44479 7.66596 2.17368 7.39486 1.83964 7.39486H0.605143C0.271104 7.39486 0 7.66596 0 8C0 8.33404 0.271104 8.60514 0.605143 8.60514H1.83964C2.17489 8.60514 2.44479 8.33404 2.44479 8Z" fill="#EEEEEE"/>
<path d="M8.03388 3.27745C5.43056 3.27745 3.31134 5.39546 3.31134 8C3.31134 10.6033 5.42935 12.7225 8.03388 12.7225C10.6384 12.7225 12.7564 10.6045 12.7564 8C12.7564 5.39667 10.6372 3.27745 8.03388 3.27745ZM8.03388 11.5123C6.09743 11.5123 4.52163 9.93646 4.52163 8C4.52163 6.06354 6.09743 4.48774 8.03388 4.48774C9.97034 4.48774 11.5461 6.06354 11.5461 8C11.5461 9.93646 9.97034 11.5123 8.03388 11.5123Z" fill="#EEEEEE"/>
<path d="M15.3949 7.39486H14.1604C13.8263 7.39486 13.5552 7.66596 13.5552 8C13.5552 8.33404 13.8263 8.60514 14.1604 8.60514H15.3949C15.7289 8.60514 16 8.33404 16 8C16 7.66596 15.7301 7.39486 15.3949 7.39486Z" fill="#EEEEEE"/>
<path d="M8.03388 13.5552C7.69984 13.5552 7.42874 13.8263 7.42874 14.1604V15.3949C7.42874 15.7289 7.69984 16 8.03388 16C8.36792 16 8.63903 15.7289 8.63903 15.3949V14.1604C8.63903 13.8263 8.36792 13.5552 8.03388 13.5552Z" fill="#EEEEEE"/>
<path d="M8.03388 2.44478C8.36792 2.44478 8.63903 2.17367 8.63903 1.83963V0.605144C8.63903 0.271104 8.36792 0 8.03388 0C7.69984 0 7.42874 0.271104 7.42874 0.605144V1.83963C7.42874 2.17367 7.69984 2.44478 8.03388 2.44478Z" fill="#EEEEEE"/>
<path d="M3.24961 11.9286L2.377 12.8012C2.141 13.0372 2.141 13.4209 2.377 13.6569C2.49561 13.7755 2.65053 13.8336 2.80545 13.8336C2.96036 13.8336 3.11527 13.7743 3.23388 13.6569L4.10651 12.7843C4.34251 12.5483 4.34251 12.1646 4.10651 11.9286C3.86929 11.6914 3.48683 11.6914 3.24961 11.9286Z" fill="#EEEEEE"/>
<path d="M12.3897 4.24932C12.5446 4.24932 12.6995 4.19001 12.8181 4.07261L13.6908 3.19999C13.9268 2.96398 13.9268 2.58033 13.6908 2.34432C13.4548 2.10832 13.0711 2.10832 12.8351 2.34432L11.9625 3.21694C11.7265 3.45294 11.7265 3.83661 11.9625 4.07261C12.0799 4.19001 12.2348 4.24932 12.3897 4.24932Z" fill="#EEEEEE"/>
<path d="M12.8181 11.9286C12.5821 11.6926 12.1985 11.6926 11.9625 11.9286C11.7265 12.1646 11.7265 12.5483 11.9625 12.7843L12.8351 13.6569C12.9537 13.7755 13.1086 13.8336 13.2635 13.8336C13.4184 13.8336 13.5734 13.7743 13.692 13.6569C13.928 13.4209 13.928 13.0372 13.692 12.8012L12.8181 11.9286Z" fill="#EEEEEE"/>
<path d="M3.24961 4.0714C3.36822 4.19001 3.52314 4.2481 3.67806 4.2481C3.83298 4.2481 3.9879 4.1888 4.10651 4.0714C4.34251 3.83539 4.34251 3.45173 4.10651 3.21573L3.23388 2.34311C2.99787 2.10711 2.61422 2.10711 2.37821 2.34311C2.14221 2.57912 2.14221 2.96278 2.37821 3.19879L3.24961 4.0714Z" fill="#EEEEEE"/>
</svg>
